# Blender v2.82 (sub 7) OBJ File: 'hexagon.blend'
# www.blender.org
mtllib hex_wall.mtl
o Hex_Wall_Hex_Wall.001
v -0.471132 0.000000 -0.050000
v -0.471132 0.000000 0.050000
v -0.500000 0.000000 0.000000
v 0.471132 0.000000 -0.050000
v 0.471132 0.000000 0.050000
v 0.500000 0.000000 0.000000
v -0.471132 1.000000 0.050000
v -0.471132 1.000000 -0.050000
v -0.500000 1.000000 0.000000
v 0.471132 1.000000 0.050000
v 0.471132 1.000000 -0.050000
v 0.500000 1.000000 0.000000
vt 0.916667 0.014434
vt 0.833333 0.014434
vt 0.875000 0.000000
vt 0.916667 0.485566
vt 0.833333 0.485566
vt 0.875000 0.500000
vt 1.000000 0.014434
vt 0.916667 0.014434
vt 0.958333 0.000000
vt 1.000000 0.485566
vt 0.916667 0.485566
vt 0.958333 0.500000
vt 0.833333 0.514434
vt 0.000000 0.500000
vt 0.833333 0.500000
vt 0.000000 0.514434
vt 0.000000 0.500000
vt 0.024056 0.000000
vt 0.024057 0.500000
vt 0.000000 0.000000
vt 0.809277 0.500000
vt 0.809277 0.000000
vt 0.833333 0.000000
vt 0.833333 0.500000
vt 0.000000 0.985566
vt 0.833333 1.000000
vt 0.000000 1.000000
vt 0.833333 0.985566
vn 0.0000 -1.0000 0.0000
vn 0.0000 1.0000 0.0000
vn 0.8660 0.0000 -0.5000
vn 0.8660 0.0000 0.5000
vn 0.0000 0.0000 1.0000
vn -0.8660 0.0000 0.5000
vn -0.8660 0.0000 -0.5000
vn 0.0000 0.0000 -1.0000
usemtl None
s off
f 1/1/1 2/2/1 3/3/1
f 2/2/1 1/1/1 4/4/1
f 2/2/1 4/4/1 5/5/1
f 5/5/1 4/4/1 6/6/1
f 7/7/2 8/8/2 9/9/2
f 8/8/2 7/7/2 10/10/2
f 8/8/2 10/10/2 11/11/2
f 11/11/2 10/10/2 12/12/2
f 4/13/3 12/14/3 6/15/3
f 12/14/3 4/13/3 11/16/3
f 6/17/4 10/18/4 5/19/4
f 10/18/4 6/17/4 12/20/4
f 10/18/5 2/21/5 5/19/5
f 2/21/5 10/18/5 7/22/5
f 9/23/6 2/21/6 7/22/6
f 2/21/6 9/23/6 3/24/6
f 8/25/7 3/26/7 9/27/7
f 3/26/7 8/25/7 1/28/7
f 8/25/8 4/13/8 1/28/8
f 4/13/8 8/25/8 11/16/8
