# Blender v2.82 (sub 7) OBJ File: 'hexagon.blend'
# www.blender.org
mtllib hexagon.mtl
o Circle.002_Circle.001
v -0.500000 0.000000 -0.866025
v -1.000000 0.000000 0.000000
v -0.500000 0.000000 0.866025
v 0.500000 0.000000 0.866025
v 1.000000 0.000000 -0.000000
v 0.500000 0.000000 -0.866025
vt 0.500000 0.002817
vt 0.925350 0.255634
vt 0.927516 0.745775
vt 0.500000 0.995775
vt 0.069016 0.251408
vt 0.069016 0.747183
vn 0.0000 1.0000 0.0000
usemtl None
s off
f 6/1/1 1/2/1 2/3/1
f 6/1/1 2/3/1 3/4/1
f 5/5/1 6/1/1 3/4/1
f 4/6/1 5/5/1 3/4/1
