# Blender v2.82 (sub 7) OBJ File: ''
# www.blender.org
mtllib subdiv_object.mtl
o Cube
v 0.059418 0.162894 -0.292902
v 0.059418 -0.321431 -0.292902
v 0.059418 0.162894 0.191423
v 0.059418 -0.321431 0.191423
v -0.424907 0.162894 -0.292902
v -0.424907 -0.321431 -0.292902
v -0.424907 0.162894 0.191423
v -0.424907 -0.321431 0.191423
v -0.343524 -0.381651 0.623422
v -0.485127 0.081512 0.623422
v -0.021964 0.223114 0.623422
v 0.119638 -0.240048 0.623422
v 0.506347 0.251118 -0.140908
v 0.506347 -0.169437 -0.381125
v 0.506347 0.010901 0.279647
v 0.506347 -0.409654 0.039430
v 0.145945 0.594830 0.045430
v -0.278914 0.594830 0.277950
v -0.086575 0.594830 -0.379429
v -0.511434 0.594830 -0.146909
vt 0.625000 0.000000
vt 0.625000 0.250000
vt 0.625000 0.250000
vt 0.625000 0.750000
vt 0.375000 0.750000
vt 0.375000 0.750000
vt 0.375000 0.250000
vt 0.375000 0.000000
vt 0.375000 0.500000
vt 0.125000 0.750000
vt 0.125000 0.500000
vt 0.625000 0.750000
vt 0.625000 0.750000
vt 0.375000 1.000000
vt 0.625000 0.000000
vt 0.125000 0.750000
vt 0.875000 0.750000
vt 0.625000 0.500000
vt 0.375000 0.750000
vt 0.375000 0.500000
vt 0.625000 0.500000
vt 0.875000 0.500000
vt 0.625000 0.750000
vt 0.625000 0.500000
vt 0.875000 0.750000
vt 0.625000 0.000000
vt 0.625000 1.000000
vt 0.375000 0.000000
vt 0.875000 0.750000
vn -0.9805 -0.1964 0.0000
vn 0.9904 0.0000 -0.1381
vn -1.0000 0.0000 0.0000
vn 0.0000 -1.0000 0.0000
vn -0.1937 0.0000 0.9811
vn 0.0000 0.0000 -1.0000
vn 0.0000 0.0000 1.0000
vn -0.9904 0.0000 -0.1381
vn 0.0000 -0.9904 -0.1381
vn 0.0000 0.9904 -0.1381
vn 1.0000 -0.0000 0.0000
vn -0.1937 0.0000 -0.9811
vn -0.1937 -0.9811 0.0000
vn -0.1937 0.9811 0.0000
vn 0.0000 1.0000 0.0000
vn 0.9805 -0.1964 0.0000
vn 0.0000 -0.1964 -0.9805
vn 0.0000 -0.1964 0.9805
vn -0.8601 0.1964 0.4707
vn 0.9471 0.2896 0.1381
vn 0.1937 -0.4866 0.8519
vn -0.9471 -0.2896 0.1381
vn 0.2896 -0.9471 0.1381
vn -0.2896 0.9471 0.1381
vn 0.1937 0.4866 -0.8519
vn 0.1937 -0.8519 -0.4866
vn 0.1937 0.8519 0.4866
vn 0.8601 0.1964 -0.4707
vn -0.4707 0.1964 -0.8601
vn 0.4707 0.1964 0.8601
usemtl Material
s off
f 7/1/1 20/2/1 5/3/1
f 3/4/2 12/5/2 4/6/2
f 7/1/3 6/7/3 8/8/3
f 2/9/4 8/10/4 6/11/4
f 4/6/5 15/12/5 3/4/5
f 5/3/6 2/9/6 6/7/6
f 11/13/7 9/14/7 12/5/7
f 8/8/8 10/15/8 7/1/8
f 4/6/9 9/16/9 8/10/9
f 7/17/10 11/13/10 3/4/10
f 13/18/11 16/19/11 14/20/11
f 1/21/12 14/20/12 2/9/12
f 2/9/13 16/19/13 4/6/13
f 3/4/14 13/18/14 1/21/14
f 20/22/15 17/23/15 19/24/15
f 1/21/16 17/23/16 3/4/16
f 5/3/17 19/24/17 1/21/17
f 3/4/18 18/25/18 7/17/18
f 7/1/19 18/26/19 20/2/19
f 3/4/20 11/13/20 12/5/20
f 7/1/3 5/3/3 6/7/3
f 2/9/4 4/6/4 8/10/4
f 4/6/21 16/19/21 15/12/21
f 5/3/6 1/21/6 2/9/6
f 11/13/7 10/27/7 9/14/7
f 8/8/22 9/28/22 10/15/22
f 4/6/23 12/5/23 9/16/23
f 7/17/24 10/29/24 11/13/24
f 13/18/11 15/12/11 16/19/11
f 1/21/25 13/18/25 14/20/25
f 2/9/26 14/20/26 16/19/26
f 3/4/27 15/12/27 13/18/27
f 20/22/15 18/25/15 17/23/15
f 1/21/28 19/24/28 17/23/28
f 5/3/29 20/2/29 19/24/29
f 3/4/30 17/23/30 18/25/30
