# Blender v2.82 (sub 7) OBJ File: 'all_models.blend'
# www.blender.org
mtllib basement_between.mtl
o basement_between
v -0.723075 0.027737 -0.500000
v -0.725000 0.000000 -0.500000
v -0.725000 0.000000 -0.300000
v -0.723075 0.027737 -0.300000
v -0.500000 0.212500 -0.500000
v -0.500000 0.000000 -0.500000
v -0.717333 0.054999 -0.500000
v -0.707873 0.081320 -0.500000
v -0.694856 0.106250 -0.500000
v -0.678505 0.129362 -0.500000
v -0.659099 0.150260 -0.500000
v -0.636971 0.168588 -0.500000
v -0.612500 0.184030 -0.500000
v -0.586104 0.196324 -0.500000
v -0.558234 0.205259 -0.500000
v -0.529368 0.210682 -0.500000
v 0.500000 0.212500 -0.500000
v 0.500000 0.000000 -0.500000
v 0.500000 0.212500 0.500000
v 0.500000 0.000000 0.500000
v -0.500000 0.212500 0.500000
v -0.500000 0.000000 0.500000
v -0.500000 0.212500 -0.100000
v -0.500000 0.212500 0.100000
v -0.500000 0.212500 0.300000
v -0.500000 0.000000 0.300000
v -0.500000 0.000000 0.100000
v -0.500000 0.000000 -0.100000
v -0.500000 0.000000 -0.300000
v -0.500000 0.212500 -0.300000
v -0.529368 0.210682 -0.300000
v -0.558234 0.205259 -0.300000
v -0.586104 0.196324 -0.300000
v -0.612500 0.184030 -0.300000
v -0.636971 0.168588 -0.300000
v -0.659099 0.150260 -0.300000
v -0.678505 0.129362 -0.300000
v -0.694856 0.106250 -0.300000
v -0.707873 0.081320 -0.300000
v -0.717333 0.054999 -0.300000
v -0.717333 0.054999 -0.100000
v -0.723075 0.027737 -0.100000
v -0.707873 0.081320 -0.100000
v -0.694856 0.106250 -0.100000
v -0.678505 0.129362 -0.100000
v -0.659099 0.150260 -0.100000
v -0.636971 0.168588 -0.100000
v -0.612500 0.184030 -0.100000
v -0.586104 0.196324 -0.100000
v -0.558234 0.205259 -0.100000
v -0.529368 0.210682 -0.100000
v -0.529368 0.210682 0.100000
v -0.558234 0.205259 0.100000
v -0.586104 0.196324 0.100000
v -0.612500 0.184030 0.100000
v -0.636971 0.168588 0.100000
v -0.659099 0.150260 0.100000
v -0.678505 0.129362 0.100000
v -0.694856 0.106250 0.100000
v -0.707873 0.081320 0.100000
v -0.717333 0.054999 0.100000
v -0.723075 0.027737 0.100000
v -0.725000 0.000000 -0.100000
v -0.725000 0.000000 0.100000
v -0.725000 0.000000 0.300000
v -0.725000 0.000000 0.500000
v -0.723075 0.027737 0.300000
v -0.723075 0.027737 0.500000
v -0.529368 0.210682 0.500000
v -0.558234 0.205259 0.500000
v -0.586104 0.196324 0.500000
v -0.612500 0.184030 0.500000
v -0.636971 0.168588 0.500000
v -0.659099 0.150260 0.500000
v -0.678505 0.129362 0.500000
v -0.694856 0.106250 0.500000
v -0.707873 0.081320 0.500000
v -0.717333 0.054999 0.500000
v -0.529368 0.210682 0.300000
v -0.558234 0.205259 0.300000
v -0.586104 0.196324 0.300000
v -0.612500 0.184030 0.300000
v -0.636971 0.168588 0.300000
v -0.659099 0.150260 0.300000
v -0.678505 0.129362 0.300000
v -0.694856 0.106250 0.300000
v -0.707873 0.081320 0.300000
v -0.717333 0.054999 0.300000
vt -39.370098 -0.613280
vt -31.496099 0.481348
vt -39.370098 0.481348
vt -39.370098 -0.641556
vt -31.496099 0.516893
vt -39.370098 0.516893
vt -39.370098 -0.761248
vt -31.496099 0.395084
vt -39.370098 0.395084
vt -39.370098 -0.868394
vt -31.496099 0.283839
vt -39.370098 0.283839
vt -39.370098 -0.956043
vt -31.496099 0.190366
vt -39.370098 0.190366
vt -39.370098 -1.018250
vt -31.496099 0.120986
vt -39.370098 0.120986
vt -39.370098 -1.050460
vt -31.496099 0.080722
vt -39.370098 0.080722
vt -39.370098 -1.049890
vt -31.496099 0.072895
vt -39.370098 0.072895
vt -39.370098 -1.015850
vt -31.496099 0.098761
vt -39.370098 0.098761
vt -39.370098 -0.950000
vt -31.496099 0.157231
vt -39.370098 0.157231
vt -39.370098 -0.856416
vt -31.496099 0.244754
vt -39.370098 0.244754
vt -39.370098 -0.741440
vt -31.496099 0.355423
vt -39.370098 0.355423
vt -15.748000 -0.641556
vt -23.622000 0.516893
vt -23.622000 -0.641556
vt -15.748000 -0.761248
vt -23.622000 0.395084
vt -23.622000 -0.761248
vt -15.748000 -0.868394
vt -23.622000 0.283839
vt -23.622000 -0.868394
vt -15.748000 -0.956043
vt -23.622000 0.190366
vt -23.622000 -0.956043
vt -15.748000 -1.018250
vt -23.622000 0.120986
vt -23.622000 -1.018250
vt -15.748000 -1.050460
vt -23.622000 0.080722
vt -23.622000 -1.050460
vt -15.748000 -1.049890
vt -23.622000 0.072895
vt -23.622000 -1.049890
vt -15.748000 -1.015850
vt -23.622000 0.098761
vt -23.622000 -1.015850
vt -15.748000 -0.950000
vt -23.622000 0.157231
vt -23.622000 -0.950000
vt -15.748000 -0.856416
vt -23.622000 0.244754
vt -23.622000 -0.856416
vt -15.748000 -0.741440
vt -23.622000 0.355423
vt -23.622000 -0.741440
vt -15.748000 -0.613280
vt -23.622000 0.481348
vt -23.622000 -0.613280
vt -0.000000 15.748000
vt 8.858270 23.622000
vt -0.000000 23.622000
vt -0.000000 7.874020
vt 8.858270 -0.000000
vt 8.858270 7.874020
vt -7.874020 -0.613280
vt 0.000000 0.481348
vt -7.874020 0.481348
vt -8.556430 2.165320
vt -8.782480 1.092000
vt 0.000000 0.000000
vt -7.874020 -0.641556
vt -0.000000 0.516893
vt -7.874020 0.516893
vt -7.874020 -0.761248
vt 0.000000 0.395084
vt -7.874020 0.395084
vt -7.874020 -0.868394
vt 0.000000 0.283839
vt -7.874020 0.283839
vt -7.874020 -0.956043
vt 0.000000 0.190366
vt -7.874020 0.190366
vt -7.874020 -1.018250
vt 0.000000 0.120986
vt -7.874020 0.120986
vt -7.874020 -1.050460
vt 0.000000 0.080722
vt -7.874020 0.080722
vt -7.874020 -1.049890
vt 0.000000 0.072895
vt -7.874020 0.072895
vt -7.874020 -1.015850
vt 0.000000 0.098761
vt -7.874020 0.098761
vt -7.874020 -0.950000
vt 0.000000 0.157231
vt -7.874020 0.157231
vt -7.874020 -0.856416
vt 0.000000 0.244754
vt -7.874020 0.244754
vt -7.874020 -0.741440
vt 0.000000 0.355423
vt -7.874020 0.355423
vt 0.000000 39.370098
vt 8.858270 31.496099
vt 8.858270 39.370098
vt -31.496099 -0.613280
vt -31.496099 -0.641556
vt -31.496099 -0.761248
vt -31.496099 -0.868394
vt -31.496099 -0.956043
vt -31.496099 -1.018250
vt -31.496099 -1.050460
vt -31.496099 -1.049890
vt -31.496099 -1.015850
vt -31.496099 -0.950000
vt -31.496099 -0.856416
vt -31.496099 -0.741440
vt -15.748000 0.516893
vt -15.748000 0.395084
vt -15.748000 0.283839
vt -15.748000 0.190366
vt -15.748000 0.120986
vt -15.748000 0.080722
vt -15.748000 0.072895
vt -15.748000 0.098761
vt -15.748000 0.157231
vt -15.748000 0.244754
vt -15.748000 0.355423
vt -15.748000 0.481348
vt 8.858270 15.748000
vt 0.000000 -0.613280
vt -8.858270 0.000000
vt 0.000000 8.366140
vt -1.156240 8.294570
vt -2.292690 8.081070
vt -3.389910 7.729310
vt -4.429130 7.245290
vt -5.392570 6.637310
vt -6.263740 5.915760
vt -7.027740 5.092980
vt -7.671480 4.183070
vt -8.183970 3.201580
vt 0.000000 -0.641556
vt 0.000000 -0.761248
vt 0.000000 -0.868394
vt 0.000000 -0.956043
vt 0.000000 -1.018250
vt 0.000000 -1.050460
vt 0.000000 -1.049890
vt 0.000000 -1.015850
vt 0.000000 -0.950000
vt 0.000000 -0.856416
vt 0.000000 -0.741440
vt -0.000000 31.496099
vt 2.292690 8.081070
vt 1.156240 8.294570
vt 0.000000 0.000000
vt 23.622000 -0.000000
vt 23.622000 8.366140
vt 15.748000 -0.000000
vt 0.000000 8.366140
vt 8.858270 0.000000
vt 8.782480 1.092000
vt 8.556430 2.165320
vt 8.183970 3.201580
vt 7.671480 4.183070
vt 7.027740 5.092980
vt 6.263740 5.915760
vt 5.392570 6.637310
vt 4.429130 7.245290
vt 3.389910 7.729310
vt 31.496099 8.366140
vt 15.748000 8.366140
vt 7.874020 -0.000000
vt 7.874020 8.366140
vt 39.370098 8.366140
vt 31.496099 -0.000000
vt 39.370098 0.000000
vt -39.370098 0.000000
vt -39.370098 8.366140
vt 0.000000 0.000000
vt 39.370098 8.366140
vt 0.000000 8.366140
vt 39.370098 8.366140
vt 39.370098 39.370098
vt -0.000000 31.496099
vt -0.000000 23.622000
vt -39.370098 39.370098
vt 39.370098 0.000000
vt 39.370098 0.000000
vt -0.000000 -0.000000
vt 39.370098 -0.000000
vt -0.000000 7.874020
vt -0.000000 15.748000
vt -0.000000 39.370098
vt -39.370098 -0.000000
vn -0.9976 0.0692 0.0000
vn -0.9904 0.1380 0.0000
vn -0.1234 0.9924 0.0000
vn -0.0618 0.9981 0.0000
vn -0.2454 0.9694 0.0000
vn -0.3645 0.9312 0.0000
vn -0.4789 0.8779 0.0000
vn -0.5870 0.8096 0.0000
vn -0.6868 0.7269 0.0000
vn -0.7763 0.6304 0.0000
vn -0.6868 0.7268 0.0000
vn -0.8533 0.5214 0.0000
vn -0.9159 0.4015 0.0000
vn -0.9621 0.2728 0.0000
vn 0.0000 -1.0000 -0.0000
vn 0.0000 0.0000 1.0000
vn 0.0000 0.0000 -1.0000
vn 1.0000 0.0000 0.0000
vn -0.0000 1.0000 0.0000
usemtl Wood
s 1
f 2/1/1 4/2/2 1/3/2
f 16/4/3 30/5/4 5/6/4
f 15/7/5 31/8/3 16/9/3
f 14/10/6 32/11/5 15/12/5
f 13/13/7 33/14/6 14/15/6
f 12/16/8 34/17/7 13/18/7
f 11/19/9 35/20/8 12/21/8
f 10/22/10 36/23/11 11/24/9
f 9/25/12 37/26/10 10/27/10
f 8/28/13 38/29/12 9/30/12
f 7/31/14 39/32/13 8/33/13
f 1/34/2 40/35/14 7/36/14
f 52/37/3 23/38/4 51/39/3
f 53/40/5 51/41/3 50/42/5
f 54/43/6 50/44/5 49/45/6
f 55/46/7 49/47/6 48/48/7
f 56/49/8 48/50/7 47/51/8
f 57/52/9 47/53/8 46/54/9
f 58/55/10 46/56/9 45/57/10
f 59/58/12 45/59/10 44/60/12
f 60/61/13 44/62/12 43/63/13
f 61/64/14 43/65/13 41/66/14
f 62/67/2 41/68/14 42/69/2
f 64/70/1 42/71/2 63/72/1
f 27/73/15 63/74/15 28/75/15
f 26/76/15 66/77/15 65/78/15
f 65/79/1 68/80/2 67/81/2
f 78/82/16 68/83/16 22/84/16
f 79/85/3 21/86/4 25/87/4
f 80/88/5 69/89/3 79/90/3
f 81/91/6 70/92/5 80/93/5
f 82/94/7 71/95/6 81/96/6
f 83/97/8 72/98/7 82/99/7
f 84/100/9 73/101/8 83/102/8
f 85/103/10 74/104/11 84/105/9
f 86/106/12 75/107/10 85/108/10
f 87/109/13 76/110/12 86/111/12
f 88/112/14 77/113/13 87/114/13
f 67/115/2 78/116/14 88/117/14
f 6/118/15 3/119/15 2/120/15
f 2/1/1 3/121/1 4/2/2
f 16/4/3 31/122/3 30/5/4
f 15/7/5 32/123/5 31/8/3
f 14/10/6 33/124/6 32/11/5
f 13/13/7 34/125/7 33/14/6
f 12/16/8 35/126/8 34/17/7
f 11/19/9 36/127/11 35/20/8
f 10/22/10 37/128/10 36/23/11
f 9/25/12 38/129/12 37/26/10
f 8/28/13 39/130/13 38/29/12
f 7/31/14 40/131/14 39/32/13
f 1/34/2 4/132/2 40/35/14
f 52/37/3 24/133/4 23/38/4
f 53/40/5 52/134/3 51/41/3
f 54/43/6 53/135/5 50/44/5
f 55/46/7 54/136/6 49/47/6
f 56/49/8 55/137/7 48/50/7
f 57/52/9 56/138/8 47/53/8
f 58/55/10 57/139/9 46/56/9
f 59/58/12 58/140/10 45/59/10
f 60/61/13 59/141/12 44/62/12
f 61/64/14 60/142/13 43/65/13
f 62/67/2 61/143/14 41/68/14
f 64/70/1 62/144/2 42/71/2
f 27/73/15 64/145/15 63/74/15
f 26/76/15 22/84/15 66/77/15
f 65/79/1 66/146/1 68/80/2
f 66/147/16 22/84/16 68/83/16
f 22/84/16 21/148/16 69/149/16
f 70/150/16 22/84/16 69/149/16
f 70/150/16 71/151/16 22/84/16
f 71/151/16 72/152/16 22/84/16
f 72/152/16 73/153/16 22/84/16
f 73/153/16 74/154/16 22/84/16
f 74/154/16 75/155/16 22/84/16
f 75/155/16 76/156/16 22/84/16
f 76/156/16 77/157/16 22/84/16
f 77/157/16 78/82/16 22/84/16
f 79/85/3 69/158/3 21/86/4
f 80/88/5 70/159/5 69/89/3
f 81/91/6 71/160/6 70/92/5
f 82/94/7 72/161/7 71/95/6
f 83/97/8 73/162/8 72/98/7
f 84/100/9 74/163/11 73/101/8
f 85/103/10 75/164/10 74/104/11
f 86/106/12 76/165/12 75/107/10
f 87/109/13 77/166/13 76/110/12
f 88/112/14 78/167/14 77/113/13
f 67/115/2 68/168/2 78/116/14
f 6/118/15 29/169/15 3/119/15
usemtl Green
f 15/170/17 16/171/17 6/172/17
f 28/173/18 23/174/18 27/175/18
f 40/35/14 42/69/2 41/68/14
f 39/32/13 41/66/14 43/65/13
f 38/29/12 43/63/13 44/62/12
f 37/26/10 44/60/12 45/59/10
f 36/23/11 45/57/10 46/56/9
f 35/20/8 46/54/9 47/53/8
f 34/17/7 47/51/8 48/50/7
f 33/14/6 48/48/7 49/47/6
f 32/11/5 49/45/6 50/44/5
f 31/8/3 50/42/5 51/41/3
f 30/5/4 51/39/3 23/38/4
f 65/78/15 27/73/15 26/76/15
f 67/81/2 64/70/1 65/79/1
f 25/87/4 52/37/3 79/85/3
f 79/90/3 53/40/5 80/88/5
f 80/93/5 54/43/6 81/91/6
f 81/96/6 55/46/7 82/94/7
f 82/99/7 56/49/8 83/97/8
f 83/102/8 57/52/9 84/100/9
f 84/105/9 58/55/10 85/103/10
f 85/108/10 59/58/12 86/106/12
f 86/111/12 60/61/13 87/109/13
f 87/114/13 61/64/14 88/112/14
f 88/117/14 62/67/2 67/115/2
f 3/119/15 28/75/15 63/74/15
f 4/2/2 63/72/1 42/71/2
f 16/171/17 5/176/17 6/172/17
f 6/172/17 2/177/17 1/178/17
f 1/178/17 7/179/17 6/172/17
f 7/179/17 8/180/17 6/172/17
f 8/180/17 9/181/17 6/172/17
f 9/181/17 10/182/17 6/172/17
f 10/182/17 11/183/17 6/172/17
f 11/183/17 12/184/17 6/172/17
f 12/184/17 13/185/17 6/172/17
f 13/185/17 14/186/17 6/172/17
f 14/186/17 15/170/17 6/172/17
f 30/187/18 23/174/18 28/173/18
f 23/174/18 24/188/18 27/175/18
f 26/189/18 24/188/18 25/190/18
f 25/190/18 21/148/18 22/84/18
f 5/191/18 30/187/18 29/192/18
f 24/188/18 26/189/18 27/175/18
f 25/190/18 22/84/18 26/189/18
f 28/173/18 29/192/18 30/187/18
f 29/192/18 6/193/18 5/191/18
f 40/35/14 4/132/2 42/69/2
f 39/32/13 40/131/14 41/66/14
f 38/29/12 39/130/13 43/63/13
f 37/26/10 38/129/12 44/60/12
f 36/23/11 37/128/10 45/57/10
f 35/20/8 36/127/11 46/54/9
f 34/17/7 35/126/8 47/51/8
f 33/14/6 34/125/7 48/48/7
f 32/11/5 33/124/6 49/45/6
f 31/8/3 32/123/5 50/42/5
f 30/5/4 31/122/3 51/39/3
f 65/78/15 64/145/15 27/73/15
f 67/81/2 62/144/2 64/70/1
f 25/87/4 24/133/4 52/37/3
f 79/90/3 52/134/3 53/40/5
f 80/93/5 53/135/5 54/43/6
f 81/96/6 54/136/6 55/46/7
f 82/99/7 55/137/7 56/49/8
f 83/102/8 56/138/8 57/52/9
f 84/105/9 57/139/9 58/55/10
f 85/108/10 58/140/10 59/58/12
f 86/111/12 59/141/12 60/61/13
f 87/114/13 60/142/13 61/64/14
f 88/117/14 61/143/14 62/67/2
f 3/119/15 29/169/15 28/75/15
f 4/2/2 3/121/1 63/72/1
usemtl Dark_brick.003
f 18/194/17 5/176/17 17/195/17
f 20/196/18 17/197/18 19/198/18
f 22/84/16 19/199/16 21/148/16
f 17/200/19 30/201/19 23/202/19
f 27/73/15 28/75/15 18/203/15
f 18/194/17 6/172/17 5/176/17
f 20/196/18 18/204/18 17/197/18
f 22/84/16 20/205/16 19/199/16
f 21/206/19 19/207/19 25/208/19
f 19/207/19 17/200/19 24/209/19
f 25/208/19 19/207/19 24/209/19
f 17/200/19 5/210/19 30/201/19
f 23/202/19 24/209/19 17/200/19
f 29/169/15 6/118/15 18/203/15
f 18/203/15 20/211/15 27/73/15
f 20/211/15 22/84/15 26/76/15
f 26/76/15 27/73/15 20/211/15
f 28/75/15 29/169/15 18/203/15
