# Blender v2.82 (sub 7) OBJ File: 'all_models.blend'
# www.blender.org
mtllib basement3.mtl
o basement3
v -0.500000 0.212500 -0.500000
v -0.500000 0.837500 -0.500000
v 0.500000 0.837500 -0.500000
v 0.500000 0.212500 -0.500000
v -0.500000 0.212500 0.500000
v -0.500000 0.837500 0.500000
v -0.500000 0.212500 -0.225000
v -0.500000 0.212500 -0.125000
v -0.500000 0.712500 -0.125000
v -0.500000 0.712500 0.125000
v -0.500000 0.212500 0.125000
v -0.500000 0.212500 0.225000
v 0.500000 0.212500 0.500000
v 0.500000 0.837500 0.500000
v 0.500000 0.000000 -0.500000
v 0.500000 0.000000 0.500000
v -0.500000 0.000000 -0.500000
v -0.500000 0.000000 -0.325000
v -0.500000 0.106250 -0.325000
v -0.500000 0.106250 -0.225000
v -0.500000 0.000000 0.500000
v -0.500000 0.000000 0.325000
v -0.700000 0.000000 0.325000
v -0.700000 0.000000 -0.325000
v -0.500000 0.106250 0.225000
v -0.500000 0.106250 0.325000
v -0.600000 0.212500 0.225000
v -0.600000 0.106250 0.225000
v -0.600000 0.212500 -0.225000
v -0.600000 0.106250 -0.225000
v -0.400000 0.212500 -0.125000
v -0.400000 0.212500 0.125000
v -0.400000 0.712500 -0.125000
v -0.400000 0.712500 0.125000
v -0.700000 0.106250 -0.325000
v -0.700000 0.106250 0.325000
vt 0.000000 32.972401
vt -39.370098 8.366140
vt 0.000000 8.366140
vt 0.000000 32.972401
vt -39.370098 32.972401
vt -14.763800 28.051201
vt 39.370098 32.972401
vt 0.000000 8.366140
vt 39.370098 8.366140
vt 39.370098 32.972401
vt 0.000000 8.366140
vt 39.370098 8.366140
vt -0.000000 0.000000
vt 39.370098 39.370098
vt -0.000000 39.370098
vt 0.000000 8.366140
vt 3.937010 28.051201
vt 0.000000 28.051201
vt 0.000000 24.606300
vt -3.937010 14.763800
vt 0.000000 14.763800
vt 0.000000 28.051201
vt -3.937010 8.366140
vt 0.000000 8.366140
vt -39.370098 32.972401
vt -10.826800 8.366140
vt -39.370098 8.366140
vt -24.606300 28.051201
vt -28.543301 8.366140
vt -24.606300 8.366140
vt -14.763800 8.366140
vt 0.000000 32.972401
vt 39.370098 0.000000
vt 3.937010 8.366140
vt -3.937010 24.606300
vt -3.937010 28.051201
vt 0.000000 0.000000
vt 39.370098 0.000000
vt -39.370098 0.000000
vt 0.000000 0.000000
vt -32.480301 4.183070
vt 0.000000 6.889760
vt 0.000000 32.480301
vt -39.370098 39.370098
vt 0.000000 0.000000
vt 39.370098 0.000000
vt -6.889760 4.183070
vt -6.889760 0.000000
vt -3.937010 4.183070
vt 0.000000 8.366140
vt -3.937010 8.366140
vt -28.543301 8.366140
vt -10.826800 4.183070
vt -10.826800 8.366140
vt 0.000000 24.606300
vt -3.937010 28.543301
vt 0.000000 14.763800
vt 0.000000 4.183070
vt 3.937010 8.366140
vt 0.000000 8.366140
vt -3.937010 28.543301
vt -7.874020 32.480301
vt -7.874020 6.889760
vt 0.000000 4.183070
vt 7.874020 -0.000000
vt 7.874020 4.183070
vt -6.889760 0.000000
vt -32.480301 4.183070
vt -32.480301 -0.000000
vt 0.000000 4.183070
vt -7.874020 0.000000
vt 0.000000 0.000000
vt -39.370098 0.000000
vt -32.480301 -0.000000
vt -28.543301 4.183070
vt -39.370098 0.000000
vt 7.874020 6.889760
vt 7.874020 32.480301
vt 0.000000 39.370098
vt -10.826800 4.183070
vt 0.000000 4.183070
vt -28.543301 4.183070
vt 3.937010 14.763800
vt 3.937010 24.606300
vt 0.000000 28.543301
vt -3.937010 10.826800
vt 0.000000 10.826800
vt 3.937010 4.183070
vt 0.000000 6.889760
vt 0.000000 10.826800
vt -3.937010 10.826800
vt 0.000000 28.543301
vt 0.000000 32.480301
vt 0.000000 -0.000000
vt -6.889760 4.183070
vt -7.874020 4.183070
vt -24.606300 28.051201
vt -14.763800 8.366140
vt -14.763800 28.051201
vt -24.606300 8.366140
vn 0.0000 0.0000 -1.0000
vn -1.0000 0.0000 0.0000
vn 0.0000 -0.0000 1.0000
vn 1.0000 0.0000 0.0000
vn 0.0000 1.0000 0.0000
vn 0.0000 -1.0000 -0.0000
usemtl Brick.002
s 1
f 2/1/1 4/2/1 1/3/1
f 6/4/2 2/5/2 10/6/2
f 14/7/3 5/8/3 13/9/3
f 3/10/4 13/11/4 4/12/4
f 6/13/5 3/14/5 2/15/5
f 8/16/3 33/17/3 9/18/3
f 9/19/6 34/20/6 10/21/6
f 10/22/1 32/23/1 11/24/1
f 2/1/1 3/25/1 4/2/1
f 12/26/2 5/8/2 10/6/2
f 5/8/2 6/4/2 10/6/2
f 2/5/2 1/27/2 9/28/2
f 1/27/2 7/29/2 9/28/2
f 7/29/2 8/30/2 9/28/2
f 10/6/2 11/31/2 12/26/2
f 2/5/2 9/28/2 10/6/2
f 14/7/3 6/4/3 5/8/3
f 3/10/4 14/32/4 13/11/4
f 6/13/5 14/33/5 3/14/5
f 8/16/3 31/34/3 33/17/3
f 9/19/6 33/35/6 34/20/6
f 10/22/1 34/36/1 32/23/1
usemtl Dark_brick.002
f 4/12/4 16/37/4 15/38/4
f 1/3/1 15/39/1 17/40/1
f 19/41/2 7/29/2 1/27/2
f 22/42/6 18/43/6 15/44/6
f 13/9/3 21/45/3 16/46/3
f 26/47/2 22/48/2 21/45/2
f 28/49/3 12/50/3 27/51/3
f 29/52/2 28/53/2 27/54/2
f 8/55/5 29/56/5 11/57/5
f 20/58/1 29/59/1 7/60/1
f 30/61/5 35/62/5 36/63/5
f 19/64/1 24/65/1 35/66/1
f 23/67/2 35/68/2 24/69/2
f 26/70/3 23/71/3 22/72/3
f 4/12/4 13/11/4 16/37/4
f 1/3/1 4/2/1 15/39/1
f 1/27/2 17/73/2 19/41/2
f 17/73/2 18/74/2 19/41/2
f 19/41/2 20/75/2 7/29/2
f 15/44/6 16/76/6 22/42/6
f 16/76/6 21/45/6 22/42/6
f 22/42/6 23/77/6 24/78/6
f 18/43/6 17/79/6 15/44/6
f 22/42/6 24/78/6 18/43/6
f 13/9/3 5/8/3 21/45/3
f 21/45/2 5/8/2 26/47/2
f 5/8/2 12/26/2 26/47/2
f 12/26/2 25/80/2 26/47/2
f 28/49/3 25/81/3 12/50/3
f 29/52/2 30/82/2 28/53/2
f 32/83/5 31/84/5 8/55/5
f 8/55/5 7/85/5 29/56/5
f 29/56/5 27/86/5 11/57/5
f 27/86/5 12/87/5 11/57/5
f 11/57/5 32/83/5 8/55/5
f 20/58/1 30/88/1 29/59/1
f 26/89/5 25/90/5 28/91/5
f 30/61/5 20/92/5 19/93/5
f 36/63/5 26/89/5 28/91/5
f 30/61/5 19/93/5 35/62/5
f 36/63/5 28/91/5 30/61/5
f 19/64/1 18/94/1 24/65/1
f 23/67/2 36/95/2 35/68/2
f 26/70/3 36/96/3 23/71/3
usemtl Glass.002
f 33/97/2 32/98/2 34/99/2
f 33/97/2 31/100/2 32/98/2
