# Blender v2.82 (sub 7) OBJ File: 'all_models.blend'
# www.blender.org
mtllib roof1.mtl
o roof1
v -0.375000 0.212500 -0.375000
v -0.375000 0.212500 0.375000
v -0.375000 0.106250 0.375000
v -0.375000 0.106250 -0.375000
v -0.500000 0.212500 -0.500000
v 0.500000 0.212500 -0.500000
v 0.375000 0.212500 -0.375000
v 0.375000 0.106250 -0.375000
v 0.375000 0.106250 0.375000
v 0.375000 0.212500 0.375000
v 0.500000 0.212500 0.500000
v -0.500000 0.212500 0.500000
v -0.500000 0.000000 0.500000
v -0.500000 0.000000 -0.500000
v 0.500000 0.000000 0.500000
v 0.500000 0.000000 -0.500000
vt 4.921260 8.366140
vt 34.448799 4.183070
vt 34.448799 8.366140
vt 4.921260 34.448799
vt 0.000000 39.370098
vt 4.921260 4.921260
vt 39.370098 39.370098
vt 34.448799 34.448799
vt 4.921260 8.366140
vt 34.448799 4.183070
vt 34.448799 8.366140
vt 34.448799 34.448799
vt 4.921260 4.921260
vt 34.448799 4.921260
vt -34.448799 8.366140
vt -4.921260 4.183070
vt -4.921260 8.366140
vt 34.448799 4.921260
vt 39.370098 0.000000
vt 0.000000 0.000000
vt 0.000000 8.366140
vt -39.370098 0.000000
vt 0.000000 0.000000
vt 39.370098 8.366140
vt 39.370098 0.000000
vt 39.370098 0.000000
vt 0.000000 8.366140
vt 0.000000 0.000000
vt -39.370098 39.370098
vt -39.370098 0.000000
vt 0.000000 8.366140
vt -39.370098 0.000000
vt 0.000000 0.000000
vt -34.448799 8.366140
vt -4.921260 4.183070
vt -4.921260 8.366140
vt 4.921260 4.183070
vt 4.921260 4.183070
vt 4.921260 34.448799
vt -34.448799 4.183070
vt -39.370098 8.366140
vt 39.370098 8.366140
vt 0.000000 39.370098
vt -39.370098 8.366140
vt -34.448799 4.183070
vn 1.0000 0.0000 0.0000
vn -0.0000 1.0000 0.0000
vn 0.0000 -0.0000 1.0000
vn -1.0000 0.0000 0.0000
vn 0.0000 -1.0000 -0.0000
vn 0.0000 0.0000 -1.0000
usemtl Brick.008
s 1
f 2/1/1 4/2/1 1/3/1
f 1/4/2 5/5/2 2/6/2
f 5/5/2 1/4/2 6/7/2
f 6/7/2 1/4/2 7/8/2
f 1/9/3 8/10/3 7/11/3
f 8/12/2 3/13/2 9/14/2
f 7/15/4 9/16/4 10/17/4
f 10/18/2 11/19/2 7/8/2
f 2/6/2 11/19/2 10/18/2
f 2/6/2 12/20/2 11/19/2
f 12/20/2 2/6/2 5/5/2
f 12/21/4 14/22/4 13/23/4
f 11/24/3 13/23/3 15/25/3
f 16/26/1 11/27/1 15/28/1
f 13/23/5 16/29/5 15/30/5
f 5/31/6 16/32/6 14/33/6
f 6/7/2 7/8/2 11/19/2
f 10/34/6 3/35/6 2/36/6
f 2/1/1 3/37/1 4/2/1
f 1/9/3 4/38/3 8/10/3
f 8/12/2 4/39/2 3/13/2
f 7/15/4 8/40/4 9/16/4
f 12/21/4 5/41/4 14/22/4
f 11/24/3 12/21/3 13/23/3
f 16/26/1 6/42/1 11/27/1
f 13/23/5 14/43/5 16/29/5
f 5/31/6 6/44/6 16/32/6
f 10/34/6 9/45/6 3/35/6
